<svg width="152" height="152" viewBox="0 0 152 152" fill="none" xmlns="http://www.w3.org/2000/svg">
<rect width="152" height="152" fill="#FFEDED"/>
<path d="M95.0426 65.5328C95.0426 65.5328 95.0426 58.7291 95.0426 56.8101C95.0426 46.1684 86.5601 37.6201 76.0003 37.6201C65.4406 37.6201 56.9581 46.1684 56.9581 56.8101C56.9581 58.7291 56.9581 65.5328 56.9581 65.5328M48.3026 114.38C46.3983 114.38 44.8403 112.81 44.8403 110.891V69.0219C44.8403 67.1029 46.3983 65.5328 48.3026 65.5328H103.698C105.602 65.5328 107.16 67.1029 107.16 69.0219V110.891C107.16 112.81 105.602 114.38 103.698 114.38H48.3026Z" stroke="#FF4550" stroke-width="5" stroke-miterlimit="10" stroke-linecap="round"/>
</svg>
