<svg width="122" height="41" viewBox="0 0 122 41" fill="none" xmlns="http://www.w3.org/2000/svg">
<path d="M116.063 7.81527H110.77V0.404297H99.1463L93.8009 7.81527H84.3022L81.126 10.9914V7.81527H73.715V0.404297H50.4234V7.81527H17.6564L12.3099 0.404297H0.664062V25.8133L15.486 40.6353H30.3079V36.4004L34.5428 40.6353H63.128V36.4004L67.3628 40.6353H81.126V36.4004L85.3609 40.6353H111.829L121.357 31.1069V13.1088L116.063 7.81527ZM18.6621 18.4024H11.2512V20.5198H18.6621V28.9895H7.01632L2.78148 24.7546V2.52172H11.2512V9.93269H18.6621V18.4024ZM50.4234 28.9895H25.0144L20.7796 24.7546V9.93269H29.2492V20.5198H31.3667V9.93269H39.8363V20.5198H41.9538V9.93269H50.4234V28.9895ZM61.0105 28.9895H52.5409V9.93269H61.0105V28.9895ZM61.0105 7.81527H52.5409V2.52172H61.0105V7.81527ZM79.0086 18.4024H71.5976V20.5198H79.0086V28.9895H67.3628L63.128 24.7546V2.52172H71.5976V9.93269H79.0086V18.4024ZM98.0654 18.4024H89.5957V20.5198H98.0654V28.9895H85.3609L81.126 24.7546V14.1675L85.3609 9.93269H98.0654V18.4024ZM119.24 28.9895H110.77V18.4024H108.652V28.9895H100.183V2.52172H108.652V9.93269H115.005L119.24 14.1675V28.9895Z" fill="#989898"/>
</svg>
