<svg width="159" height="39" viewBox="0 0 159 39" fill="none" xmlns="http://www.w3.org/2000/svg">
<path d="M17.718 0.541028C15.6836 0.77146 12.6319 1.72864 10.8957 2.68582C6.23049 5.22057 3.07362 9.17336 1.49518 14.4378C1.17949 15.4659 0.81119 18.2666 0.828728 19.5782C0.828728 20.7304 1.17949 23.5488 1.38995 24.2223C1.49518 24.5414 1.72318 25.3036 1.9161 25.8885C2.23178 26.8812 3.75761 30.0009 4.02068 30.2136C4.07329 30.2667 4.35391 30.6212 4.61698 31.0289C5.26589 32.0038 6.9671 33.7409 8.24739 34.7336C9.22953 35.4958 12.0006 37.1088 12.3513 37.1265C12.439 37.1265 12.4566 36.4529 12.4039 35.5667C12.2812 33.5991 12.6495 30.9226 13.4387 28.1929C13.579 27.732 13.6842 27.1293 13.6842 26.8634C13.6842 26.5976 13.7544 26.3139 13.8421 26.2253C13.9298 26.119 14.0876 25.6049 14.1753 25.0732C14.2805 24.5414 14.4559 23.726 14.5787 23.2652C14.7541 22.5739 14.7365 22.308 14.491 21.5635C14.1402 20.4291 14.1227 18.5856 14.4734 17.6993C15.2977 15.59 16.2097 14.7924 17.7531 14.7924C19.6121 14.7924 20.5066 16.2104 20.1558 18.5856C19.998 19.6669 19.5595 21.3685 19.2789 21.9003C19.2088 22.0598 19.086 22.503 19.0334 22.8752C18.9632 23.2652 18.8229 23.8146 18.7352 24.116C18.4897 24.8073 18.9632 26.1544 19.5946 26.6685C20.1909 27.147 21.4361 27.2888 22.5761 27.023C23.3829 26.8457 23.7161 26.633 24.5579 25.8176C25.5576 24.825 26.3117 23.6728 26.3117 23.1233C26.3117 22.9638 26.3994 22.7511 26.5047 22.6448C26.9957 22.1484 27.2588 18.2843 26.8905 16.6535C26.4871 14.8633 25.2419 13.1084 23.6284 12.0803C22.0149 11.0345 18.6826 10.7332 16.6306 11.4422C15.1925 11.9385 13.9122 12.7716 13.0879 13.7465C12.3513 14.6151 11.5796 16.0331 11.5796 16.5295C11.5796 16.7067 11.492 16.9371 11.3867 17.0435C11.2815 17.1498 11.1587 17.8234 11.1061 18.5502C11.0184 19.6314 11.0886 20.1277 11.4043 21.1913C11.6147 21.918 12.0006 22.7688 12.2286 23.0879C12.7021 23.726 12.7021 23.9742 12.2636 25.6758C12.1409 26.1367 11.9304 26.5621 11.8076 26.6153C10.7027 27.0407 8.45785 24.3641 7.7037 21.7053C7.42309 20.695 7.40555 17.0967 7.68616 16.0331C7.80893 15.59 8.01939 14.9873 8.1597 14.6683C8.3 14.3669 8.42277 14.0656 8.42277 13.9947C8.42277 13.9238 8.77353 13.3211 9.21199 12.6653C11.492 9.19109 15.1925 7.34763 19.8752 7.34763C20.945 7.34763 22.0499 7.41853 22.3481 7.50716C24.7684 8.26936 25.4173 8.51752 26.3643 9.08473C28.2059 10.2014 29.5388 11.7258 30.8717 14.2783C30.9594 14.4378 31.0821 14.8633 31.1347 15.2178C31.2049 15.5723 31.3277 15.9091 31.4153 15.9622C31.503 16.0154 31.5732 17.1676 31.5732 18.5324C31.5732 20.9963 31.3978 21.9889 30.6612 24.0096C29.8369 26.2253 27.7148 28.6714 25.7856 29.6286C24.6807 30.1604 22.6112 30.7453 21.7869 30.7453C20.682 30.7453 18.5072 29.8236 17.9109 29.0791C17.6303 28.7423 17.3673 28.8664 17.3673 29.345C17.3673 29.5223 17.2971 29.8236 17.1919 30.0009C17.1042 30.1604 16.9463 30.6567 16.8586 31.0998C16.35 33.4396 15.631 35.3362 14.5261 37.1088C14.1928 37.6583 14.4734 37.9773 15.3854 38.1014C15.8414 38.1723 16.4553 38.2964 16.7359 38.385C17.4374 38.6155 21.2432 38.58 22.5235 38.3496C23.681 38.1369 25.5576 37.6051 26.3994 37.2506C31.696 35.0526 35.7122 30.5858 37.4485 24.8959C38.378 21.8648 38.4306 18.3375 37.5888 14.7924C37.3082 13.6402 37.2205 13.3743 36.4663 11.6018C35.379 9.01383 32.9236 5.98276 30.4332 4.12158C28.2935 2.52629 26.189 1.60456 22.9093 0.806911C21.9973 0.594205 18.7528 0.41695 17.718 0.541028ZM64.4924 6.93994C63.8084 7.0463 62.721 8.18073 62.4404 9.06701C62.1423 10.0419 62.4404 11.0877 63.2823 11.9031C65.1413 13.7288 68.3683 12.0094 67.965 9.38607C67.7194 7.71987 66.2111 6.65634 64.4924 6.93994ZM45.3758 7.98575C45.2179 8.16301 45.2179 29.54 45.3933 29.7882C45.481 29.93 46.2351 29.9831 47.7083 29.9654L49.9006 29.9477L49.9883 26.3494C50.0585 23.4247 50.1286 22.7157 50.3391 22.5916C50.4794 22.503 51.672 22.4143 52.9873 22.4143C55.8636 22.4143 57.0737 22.2016 58.3891 21.4926C60.1078 20.5531 61.1075 19.206 61.6512 17.0612C61.9844 15.7141 61.9844 14.7392 61.6337 13.3566C61.318 12.1158 61.1777 11.8145 60.4235 10.8041C59.494 9.5456 58.5469 8.8543 57.0036 8.30481C56.1442 8.0212 55.4251 7.96802 50.7775 7.91485C47.8837 7.8794 45.4459 7.91485 45.3758 7.98575ZM55.0042 12.3994C56.1793 12.7716 56.758 13.3034 57.0211 14.2606C57.3543 15.5191 57.1088 16.689 56.3722 17.398C55.5655 18.1602 54.8464 18.3375 52.4963 18.3375C50.9529 18.3375 50.4794 18.2843 50.2689 18.0538C50.0409 17.8411 49.9883 17.3271 49.9883 15.3064C49.9883 12.1158 49.9708 12.1335 52.4086 12.1335C53.4609 12.1335 54.4781 12.2399 55.0042 12.3994ZM85.7662 11.3536C85.7662 12.5767 85.6785 13.7288 85.5908 13.9238C85.4681 14.1542 85.2225 14.2606 84.8016 14.2606C84.4859 14.2606 84.1878 14.3315 84.1527 14.4378C84.1352 14.5265 84.1352 15.1469 84.1878 15.8027C84.2755 16.9726 84.293 16.9903 84.8192 17.1144C85.1173 17.1676 85.4505 17.2739 85.5558 17.3448C85.7136 17.4335 85.7662 18.8338 85.7662 22.3789C85.7662 27.147 85.7838 27.3243 86.1696 28.0333C86.9764 29.54 88.2391 30.0718 90.7997 30.0009L92.5184 29.9477L92.5711 28.2283L92.6237 26.4912H92.1852C91.5188 26.4912 90.5366 25.9594 90.4314 25.534C90.3788 25.3213 90.3262 23.4424 90.3262 21.3331C90.3262 18.4261 90.3788 17.4512 90.5542 17.3094C90.6769 17.203 91.168 17.0967 91.6415 17.0612L92.5184 17.008V14.3492L91.5538 14.296C91.0277 14.2606 90.5366 14.1365 90.4665 14.0302C90.3963 13.9061 90.3262 12.7539 90.3262 11.46V9.12018H85.7662V11.3536ZM150.956 9.22654C150.886 9.29744 150.833 10.4141 150.833 11.7081C150.833 14.2251 150.815 14.2606 149.851 14.2606C149.412 14.2606 149.412 14.2783 149.465 15.6255C149.518 16.9726 149.535 17.008 149.991 17.0612C150.237 17.0967 150.535 17.2207 150.623 17.3271C150.728 17.4512 150.833 19.596 150.886 22.3257C150.938 24.9491 151.026 27.342 151.096 27.6256C151.306 28.4056 152.394 29.3982 153.429 29.735C154.586 30.1249 157.533 30.1604 157.831 29.7882C157.971 29.6286 158.024 28.9905 157.989 28.0688L157.936 26.5798L157.322 26.4735C156.656 26.3671 155.901 26.0126 155.709 25.7113C155.638 25.6049 155.568 23.6728 155.568 21.4217C155.568 16.7953 155.463 17.0967 156.989 17.0967C157.989 17.0967 158.076 16.9194 157.989 15.3064L157.936 14.3492L156.796 14.2606L155.656 14.172L155.568 11.6904L155.481 9.20881L153.271 9.15563C152.061 9.13791 151.026 9.17336 150.956 9.22654ZM77.0848 13.8352C76.2255 14.0656 75.2258 14.6505 74.5593 15.3418C73.7526 16.1927 73.5421 16.1395 73.4544 15.0582L73.4018 14.3492H69.0173V29.9477L71.2271 29.9831C73.4018 30.0363 73.4544 30.0186 73.5596 29.6286C73.6123 29.4159 73.6649 27.1648 73.6649 24.6123C73.6649 19.5605 73.6824 19.4187 74.7172 18.4261C75.1732 17.9829 75.4187 17.8943 76.4008 17.8411L77.5408 17.7702L78.2248 18.497C79.0316 19.3478 78.9439 18.5324 79.014 25.8708C79.0316 27.8206 79.0491 29.54 79.0666 29.7172C79.1017 29.9654 79.3823 30.0009 81.3466 29.9654L83.574 29.9477V17.5044L83.0653 16.494C82.1884 14.7392 80.838 13.9061 78.7685 13.7997C78.0319 13.782 77.2777 13.782 77.0848 13.8352ZM99.0076 13.8352C97.1134 14.3492 96.2015 14.8633 95.0264 16.0331C93.448 17.6462 92.7289 19.5251 92.7289 22.0598C92.7464 26.5089 95.4999 29.8059 99.5688 30.1958C103.041 30.5326 105.725 29.5045 107.443 27.1825C107.689 26.8457 108.215 25.7645 108.215 25.5695C108.215 25.4986 107.198 25.4277 105.97 25.4277H103.725L103.199 25.9772C102.585 26.6153 101.726 27.023 100.937 27.023C100.148 27.023 98.9374 26.4557 98.3762 25.8531C97.9553 25.3745 97.3414 23.9919 97.3414 23.5133C97.3414 23.3538 98.6217 23.3006 102.743 23.3006C105.707 23.3006 108.215 23.2297 108.338 23.1588C108.601 22.9815 108.355 20.1632 107.97 19.1351C107.18 16.9903 105.69 15.1823 104.181 14.5442C103.743 14.3669 103.234 14.1365 103.059 14.0479C102.691 13.8529 99.5688 13.6934 99.0076 13.8352ZM102.428 17.7171C103.112 18.1957 103.708 19.3301 103.62 19.9682C103.568 20.3759 103.532 20.3759 100.568 20.4291C97.1485 20.4822 97.131 20.4645 97.6747 19.1883C98.0605 18.302 98.8322 17.5044 99.5513 17.2739C100.376 17.008 101.708 17.2207 102.428 17.7171ZM124.964 13.8352C122.93 14.3847 121.509 15.2887 120.404 16.689C119.966 17.2562 119.615 17.788 119.615 17.8943C119.615 17.9829 119.492 18.302 119.334 18.6033C119.177 18.8869 118.949 19.7732 118.826 20.5709C118.212 24.3641 119.896 27.9092 123.052 29.5045L124.263 30.1249H126.806C129.436 30.1249 129.664 30.0718 131.278 29.2032C132.453 28.5651 134.382 26.0835 134.084 25.5872C134.014 25.4986 133.014 25.4277 131.839 25.4277H129.682L129.243 25.9417C127.49 27.9447 124.21 26.9166 123.508 24.1337C123.403 23.7615 123.403 23.4424 123.491 23.3715C123.579 23.3183 126.087 23.2829 129.086 23.3006C133.365 23.3006 134.522 23.2652 134.54 23.0879C134.698 20.8722 133.646 17.593 132.33 16.1749C131.594 15.3773 130.313 14.491 129.682 14.3315C129.401 14.2606 129.086 14.1365 128.963 14.0479C128.717 13.8529 125.508 13.6934 124.964 13.8352ZM127.7 17.2917C128.489 17.5753 129.401 18.5679 129.542 19.3301C129.752 20.4822 129.77 20.4822 126.507 20.4291C123.579 20.3759 123.561 20.3759 123.508 19.9682C123.438 19.4719 124.052 18.2488 124.578 17.788C125.332 17.1498 126.648 16.9371 127.7 17.2917ZM140.222 13.8352C136.627 14.7037 135.329 15.9977 135.312 18.692C135.312 21.599 136.75 22.822 141.012 23.5842C143.94 24.0983 144.782 24.5591 144.747 25.6758C144.73 26.4735 144.186 26.9875 143.099 27.2179C141.731 27.5193 140.661 27.1825 139.801 26.2076L139.117 25.4277H136.995C135.277 25.4277 134.873 25.4808 134.873 25.6758C134.873 26.1899 135.575 27.537 136.153 28.2106C136.697 28.7955 137.118 29.0791 138.767 29.8768C138.925 29.9654 139.784 30.1072 140.643 30.2136C142.239 30.4085 145.01 30.2313 145.712 29.8768C145.87 29.8059 146.326 29.5754 146.711 29.3982C147.711 28.9196 148.658 27.8383 149.009 26.8103C149.395 25.6404 149.29 24.0096 148.746 22.8752C148.097 21.5458 146.378 20.5886 143.818 20.1277C140.52 19.5428 140.468 19.5251 139.942 19.011C139.31 18.3552 139.31 18.1248 139.942 17.4157C140.45 16.8485 140.485 16.8308 141.888 16.8308C143.292 16.8308 143.327 16.8485 143.835 17.4157C144.116 17.7348 144.344 18.107 144.344 18.2488C144.344 18.4615 144.712 18.5147 146.536 18.5147C148.956 18.5147 148.886 18.5679 148.465 17.3094C147.694 15.076 145.712 13.9415 142.415 13.8174C141.397 13.782 140.415 13.782 140.222 13.8352ZM116.897 14.2074C116.125 14.4733 115.055 15.3596 114.722 15.9977C114.389 16.6358 114.09 16.3699 114.003 15.3064L113.915 14.3492H109.53L109.478 21.7939C109.46 25.8885 109.478 29.4159 109.53 29.6463C109.618 30.0363 109.671 30.0363 111.775 30.0009C112.986 29.9831 113.968 29.8768 114.038 29.7704C114.108 29.6818 114.178 27.8029 114.178 25.6049C114.178 22.1307 114.213 21.5103 114.511 20.7304C115.125 19.1174 116.441 18.1602 118.089 18.1602C118.545 18.1602 118.738 18.0716 118.791 17.8411C118.913 17.3271 118.931 14.9342 118.826 14.4024C118.721 13.977 118.633 13.9061 118.159 13.9238C117.844 13.9415 117.282 14.0656 116.897 14.2074ZM62.8789 14.4733C62.8263 14.5974 62.8087 18.0893 62.8263 22.2371L62.8789 29.7704L64.9659 29.859C66.2287 29.9122 67.1407 29.8768 67.281 29.7704C67.4739 29.6286 67.5265 28.1219 67.5265 22.0953C67.544 17.9829 67.4914 14.5265 67.4388 14.4378C67.2634 14.172 62.9666 14.2074 62.8789 14.4733Z" fill="#989898"/>
</svg>
