<svg width="145" height="33" viewBox="0 0 145 33" fill="none" xmlns="http://www.w3.org/2000/svg">
<path d="M24.1376 32.277L14.6537 32.1016C11.5829 32.0406 8.50462 32.1626 5.49421 31.5297C0.914459 30.5841 0.590029 25.9478 0.250509 22.0589C-0.217275 16.5914 -0.0361973 11.0248 0.846555 5.60313C1.34452 2.56057 3.30619 0.745712 6.33924 0.54745C16.5777 -0.169343 26.884 -0.0854631 37.0998 0.250057C38.1787 0.280559 39.2651 0.448319 40.329 0.638955C45.5802 1.56926 45.7085 6.8232 46.048 11.246C46.3875 15.7145 46.2442 20.2059 45.5953 24.6439C45.0747 28.3194 44.0788 31.4 39.8763 31.6974C34.6099 32.0863 29.4643 32.399 24.1829 32.2999C24.1829 32.277 24.1527 32.277 24.1376 32.277V32.277ZM18.562 22.9739C22.5306 20.671 26.4237 18.4063 30.3697 16.1186C26.3936 13.8157 22.5079 11.551 18.562 9.26335V22.9739Z" fill="#989898"/>
<path d="M122.118 28.0983C121.937 28.8456 121.779 29.4327 121.62 30.058H117.908V1.11914H122.239V11.7949C122.465 11.5051 122.578 11.3831 122.676 11.2535C123.416 10.224 124.374 9.55298 125.611 9.29371C127.581 8.90481 129.263 9.78175 129.859 11.6958C130.244 12.8853 130.493 14.1588 130.523 15.4018C130.583 18.5969 130.538 21.7843 130.425 24.9794C130.38 25.9555 130.085 26.9544 129.716 27.8695C128.501 30.8892 124.532 31.3468 122.563 28.7312C122.443 28.5711 122.329 28.3957 122.118 28.0983V28.0983ZM122.329 20.1372V25.4293C122.329 26.291 122.782 26.8172 123.635 27.0154C124.472 27.2137 125.151 26.8858 125.491 26.1004C125.634 25.7725 125.777 25.4293 125.785 25.0862C125.868 21.853 125.943 18.6197 125.966 15.3789C125.966 14.7765 125.823 14.1512 125.642 13.564C125.302 12.5041 124.366 12.1914 123.446 12.8091C122.752 13.2819 122.329 13.9529 122.329 14.8451V20.1372ZM110.559 9.70549H115.094V30.0733H111.555C111.427 29.3031 111.299 28.5101 111.148 27.5797C110.906 27.9381 110.763 28.1669 110.612 28.3957C109.435 30.1114 107.768 30.6986 105.798 30.3859C104.116 30.1114 103.105 28.7998 102.879 26.6494C102.811 26.0089 102.781 25.3607 102.781 24.7202C102.765 19.9542 102.781 15.173 102.781 10.407V9.69024H107.368V10.5214C107.368 15.1272 107.353 19.7254 107.383 24.3313C107.383 24.9871 107.451 25.6657 107.564 26.3215C107.692 26.9926 108.175 27.2366 108.824 27.1908C109.873 27.107 110.597 26.3215 110.597 25.2692V10.6053C110.559 10.3079 110.559 10.0334 110.559 9.70549V9.70549ZM79.3386 9.69024H83.8957V10.5519C83.8957 15.1349 83.8806 19.7102 83.9108 24.2779C83.9108 24.9337 83.9712 25.6124 84.107 26.2529C84.2805 27.0078 84.7181 27.2518 85.465 27.1527C86.4987 27.0078 87.1249 26.2834 87.1325 25.2234V10.6358V9.72074H91.6669V30.0733H88.1435C88.0152 29.3184 87.887 28.5406 87.721 27.5569C87.4946 27.9 87.3664 28.0983 87.2381 28.3042C86.0611 30.0504 84.4088 30.691 82.3943 30.3783C80.7797 30.1343 79.7913 28.9295 79.4895 26.9544C79.4065 26.3368 79.3461 25.7267 79.3461 25.1091C79.3311 20.1601 79.3311 15.1882 79.3311 10.2393L79.3386 9.69024ZM76.9997 20.5643C76.9846 21.2505 76.9393 21.9368 76.9016 22.6231C76.7281 24.682 76.6451 27.6026 75.0003 29.1048C73.9516 30.0504 72.6237 30.3936 71.2505 30.4393C70.6393 30.4546 70.0207 30.4546 69.4095 30.3707C66.5198 29.9284 65.1769 28.6397 64.694 25.4293C64.1432 21.7233 64.0979 17.9563 64.7543 14.2503C65.4334 10.4147 67.7723 9.05732 71.4089 9.30896C74.8041 9.55298 76.3206 11.8025 76.7205 15.0052C76.9393 16.843 77.045 18.7036 76.9997 20.5643V20.5643ZM72.3822 19.8627C72.3822 18.5587 72.4124 17.2471 72.3671 15.9432C72.337 15.1882 72.2389 14.4257 72.0804 13.6784C71.8993 12.8167 71.3561 12.4049 70.6771 12.4202C70.0131 12.4354 69.5453 12.8472 69.3039 13.6479C69.2209 13.9453 69.1304 14.2503 69.1304 14.5477C69.1304 16.5913 69.1153 18.6426 69.1002 20.6863C69.0851 22.5926 68.8437 24.5905 69.4397 26.413C69.6208 26.9697 70.0886 27.2747 70.6997 27.2747C71.2958 27.2747 71.6881 26.9773 71.9069 26.4435C72.0804 26.0318 72.2313 25.5819 72.2313 25.1396C72.2841 23.3857 72.3822 21.6242 72.3822 19.8627ZM58.0394 16.0271C58.4393 14.052 58.8165 12.1228 59.2315 10.1859C59.7521 7.72285 60.333 5.2598 60.8461 2.78913C60.9744 2.18672 61.2158 2.04183 61.7817 2.05708C62.9964 2.10283 64.2337 2.07233 65.5315 2.07233C65.109 3.64319 64.694 5.1378 64.2866 6.60952C62.9964 11.2306 61.7062 15.8669 60.4311 20.5032C60.333 20.8616 60.2878 21.2505 60.2878 21.6318C60.2727 24.1635 60.2878 26.6876 60.2878 29.2192V30.0428H55.8589C55.8438 29.814 55.8137 29.5853 55.8137 29.3565C55.8137 27.9229 55.7005 26.4817 55.8287 25.0633C56.1532 21.6547 55.0818 18.5206 54.2141 15.3484C53.0673 11.1543 51.9054 6.94505 50.7586 2.751C50.6982 2.55274 50.6756 2.33923 50.6152 2.09521H55.1346C56.0853 6.72391 57.0435 11.3526 58.0394 16.0271ZM144.692 21.3421H137.057C137.14 22.89 137.17 24.3618 137.329 25.8182C137.442 26.8324 137.993 27.2671 138.86 27.2747C139.766 27.29 140.294 26.8324 140.505 25.8259C140.573 25.498 140.618 25.1701 140.648 24.8345C140.678 24.5372 140.694 24.2169 140.716 23.7898C142.006 23.8585 143.266 23.9347 144.511 23.9881C145.236 26.1614 143.93 28.9523 141.735 29.814C140.007 30.5003 138.234 30.5003 136.468 29.9742C135.163 29.5853 134.19 28.7464 133.752 27.4577C133.345 26.2529 132.96 24.9947 132.877 23.7365C132.651 20.6329 132.568 17.4988 133.036 14.3876C133.119 13.869 133.262 13.3734 133.42 12.8701C134.054 10.7959 135.435 9.52248 137.57 9.30896C138.732 9.19458 139.932 9.24033 141.078 9.4386C142.934 9.7665 143.923 11.1162 144.353 12.8853C144.549 13.7165 144.692 14.5706 144.723 15.417C144.73 17.3615 144.692 19.2908 144.692 21.3421ZM140.354 18.6655C140.354 17.1328 140.369 15.6915 140.339 14.2427C140.339 13.8995 140.211 13.5411 140.082 13.2132C139.826 12.5727 139.29 12.3973 138.649 12.3973C138.008 12.3973 137.6 12.7252 137.442 13.3124C136.959 15.0739 137.117 16.8735 137.132 18.6807C138.287 18.6655 139.335 18.6655 140.354 18.6655V18.6655Z" fill="#989898"/>
<path d="M95.1669 5.8093H90.6777V2.13379H104.077V5.78642H99.6184V30.0433H95.1745L95.1669 5.8093Z" fill="#989898"/>
</svg>
