<svg width="158" height="31" viewBox="0 0 158 31" fill="none" xmlns="http://www.w3.org/2000/svg">
<path d="M9.95716 30.2721H4.03458V15.35H0V10.4917H4.03442V7.03465C4.03442 2.93806 5.81885 0 11.7254 0C12.9746 0 14.9359 0.254488 14.9359 0.254488V4.7657H12.8759C10.777 4.7657 9.95748 5.41098 9.95748 7.19494V10.4917H14.8573L14.421 15.35H9.95732L9.95716 30.2721ZM23.5467 10.1034C23.4604 10.1034 23.3716 10.1066 23.2837 10.1088C17.792 10.1088 15.2793 14.2839 15.2793 20.2105C15.2793 27.6765 18.5386 30.6646 23.3266 30.6646C26.0661 30.6646 27.8659 29.4992 28.9599 27.3245V30.2741H34.5931V10.4938H28.9599V13.5357C28.0666 11.5786 26.2165 10.1266 23.5467 10.1034ZM24.979 14.7775C27.2856 14.7775 28.67 16.4035 28.67 19.1694L28.6754 21.9943C28.6754 23.8585 27.5319 26.0395 24.979 26.0395C21.0543 26.0395 21.1592 21.7564 21.1592 20.3298C21.1592 15.5313 23.2502 14.7775 24.979 14.7775ZM36.8681 20.385C36.8681 17.9813 36.7543 10.1163 46.8928 10.1163C50.9626 10.1163 52.662 11.4242 52.662 11.4242L51.2961 15.7058C51.2961 15.7058 49.5989 14.7613 47.3874 14.7613C44.555 14.7613 42.7476 16.4209 42.7476 19.3408L42.7507 21.4345C42.7507 24.2403 44.4946 26.1132 47.3933 26.1132C49.408 26.1132 51.2648 25.1597 51.2648 25.1597L52.6273 29.352C52.6273 29.352 51.0734 30.6681 46.9213 30.6681C37.2678 30.6681 36.8682 23.6117 36.8682 20.385H36.8681ZM85.6916 10.1088C91.1836 10.1088 93.7358 14.2839 93.7358 20.2105C93.7358 27.6765 90.4764 30.6646 85.6883 30.6646C82.9489 30.6646 80.9238 29.4994 79.8299 27.3245V30.2741L74.2675 30.2719V0.601432L80.1733 0.0808581V13.2677C81.0257 10.9606 83.8269 10.1088 85.6918 10.1088H85.6916ZM84.0359 14.7775C81.7294 14.7775 80.1733 16.4035 80.1733 19.1694L80.1678 21.9943C80.1643 23.8585 81.2454 26.0395 84.0359 26.0395C87.9606 26.0395 87.8558 21.7564 87.8558 20.3298C87.8558 15.5313 85.7649 14.7775 84.0359 14.7775ZM62.909 10.1252C56.6801 10.1252 53.3916 13.5576 53.3916 19.6574V20.7907C53.3916 28.7076 58.0096 30.7459 63.5152 30.7459C68.8666 30.7459 71.2889 29.2331 71.2889 29.2331L70.1838 25.2045C70.1838 25.2045 67.3345 26.4298 64.2233 26.4298C60.998 26.4298 59.6109 25.599 59.2554 22.4663H71.761V19.2344C71.761 12.6177 68.0704 10.1251 62.9088 10.1251L62.909 10.1252ZM63.0591 14.1592C65.2152 14.1592 66.6124 15.4955 66.5357 18.5947H59.2662C59.3923 15.3329 60.899 14.1594 63.0591 14.1594V14.1592ZM105.512 10.098C99.115 10.098 95.7475 13.7413 95.7475 20.2701C95.7475 29.2281 101.552 30.67 105.522 30.67C111.334 30.67 115.201 27.5076 115.201 20.3515C115.201 12.9031 110.853 10.098 105.512 10.098V10.098ZM105.431 14.7937C108.244 14.7937 109.358 16.9213 109.358 19.343V21.4252C109.358 24.3589 107.799 26.0558 105.42 26.0558C103.196 26.0558 101.633 24.4685 101.633 21.4252V19.343C101.633 16.0973 103.493 14.7937 105.431 14.7937V14.7937ZM126.966 10.098C120.569 10.098 117.202 13.7413 117.202 20.2701C117.202 29.2281 123.007 30.67 126.977 30.67C132.788 30.67 136.655 27.5076 136.655 20.3515C136.655 12.9031 132.307 10.098 126.966 10.098V10.098ZM126.886 14.7937C129.698 14.7937 130.813 16.9213 130.813 19.343V21.4252C130.813 24.3589 129.253 26.0558 126.875 26.0558C124.65 26.0558 123.087 24.4685 123.087 21.4252V19.343C123.087 16.0973 124.947 14.7937 126.886 14.7937V14.7937ZM138.887 30.2721V0.601432L144.81 0.0808581V19.968L150.686 10.4917H156.941L150.811 20.3063L157.177 30.2721H150.904L144.81 20.5955V30.2721H138.887Z" fill="#989898"/>
</svg>
