<svg width="129" height="43" viewBox="0 0 129 43" fill="none" xmlns="http://www.w3.org/2000/svg">
<path d="M15.8149 0H16.9568C20.9211 0.0871022 24.8208 1.69849 27.6217 4.55109C26.5875 5.61809 25.5318 6.64155 24.5192 7.70855C22.9464 6.27136 21.0504 5.16081 18.982 4.76885C15.9226 4.11558 12.6262 4.70352 10.0623 6.46734C7.26139 8.31826 5.36541 11.4539 4.95605 14.8074C4.5036 18.1173 5.43004 21.6014 7.56303 24.1709C9.60983 26.6751 12.7339 28.2429 15.9657 28.3518C18.982 28.526 22.1277 27.5896 24.3253 25.4556C26.0489 23.9531 26.8461 21.6667 27.1046 19.4456C23.5281 19.4456 19.9516 19.4674 16.3751 19.4456V14.9598H31.4352C32.2109 19.7722 31.0905 25.1943 27.4709 28.6349C25.0578 31.0737 21.7183 32.5109 18.3141 32.794C15.0177 33.1206 11.6135 32.4891 8.68338 30.8777C5.1715 28.9833 2.37061 25.7823 0.991711 22.0151C-0.301007 18.5528 -0.322553 14.6332 0.883984 11.1491C1.98279 7.96985 4.09423 5.16081 6.80894 3.20101C9.41592 1.26298 12.5831 0.19598 15.8149 0Z" fill="#989898"/>
<path d="M102.213 1.13232H106.824V32.2278C105.294 32.2278 103.743 32.2495 102.213 32.206C102.234 21.8626 102.213 11.4975 102.213 1.13232V1.13232Z" fill="#989898"/>
<path d="M41.6896 11.9114C44.5336 11.367 47.6145 11.9768 49.963 13.697C52.096 15.2213 53.5826 17.6166 54.0351 20.2296C54.6168 23.2564 53.8842 26.5663 51.9452 28.9616C49.8553 31.6399 46.4296 33.0771 43.09 32.8594C40.0306 32.6851 37.0573 31.1391 35.2475 28.6132C33.2007 25.8259 32.7052 21.9934 33.8255 18.7271C34.9459 15.2213 38.1131 12.5429 41.6896 11.9114V11.9114ZM42.3359 16.0487C41.1725 16.3536 40.0952 17.0286 39.3196 17.9868C37.2297 20.5127 37.359 24.6283 39.6643 26.98C40.9786 28.3301 42.9608 28.9616 44.7921 28.5914C46.4942 28.2865 47.9808 27.1324 48.7995 25.6081C50.2215 23.0169 49.8122 19.4457 47.6361 17.4206C46.2357 16.1141 44.1888 15.5697 42.3359 16.0487Z" fill="#989898"/>
<path d="M64.5266 11.9111C67.7799 11.2796 71.3349 12.1942 73.7695 14.5024C77.7338 18.0953 78.1648 24.824 74.7821 28.9614C72.7353 31.5744 69.4173 33.0116 66.1425 32.8592C63.0184 32.7721 59.9374 31.2043 58.0845 28.613C55.9946 25.7604 55.5422 21.8407 56.7272 18.5091C57.9121 15.1121 61.0147 12.5208 64.5266 11.9111V11.9111ZM65.1729 16.0484C64.0095 16.3533 62.9322 17.0283 62.1566 17.9647C60.0882 20.4471 60.1744 24.4974 62.3936 26.8709C63.7078 28.2863 65.7546 28.9831 67.6506 28.5912C69.3312 28.2646 70.8393 27.1322 71.6581 25.6079C73.0585 22.9949 72.6491 19.4237 70.4515 17.3985C69.0511 16.092 67.0043 15.5694 65.1729 16.0484Z" fill="#989898"/>
<path d="M83.8976 13.1742C86.3753 11.6064 89.6718 11.1709 92.3434 12.521C93.1837 12.8912 93.8731 13.5227 94.541 14.1541C94.5626 13.5662 94.541 12.9565 94.5626 12.3468C96.0061 12.3686 97.4496 12.3468 98.9147 12.3686V31.5746C98.8932 34.4707 98.1606 37.541 96.0923 39.6533C93.83 41.9833 90.3612 42.7018 87.2371 42.2228C83.8976 41.7219 80.989 39.2613 79.6963 36.1474C80.989 35.5159 82.3464 35.0151 83.6822 34.4272C84.4363 36.2127 85.966 37.737 87.8835 38.0854C89.801 38.4338 92.0202 37.9548 93.2698 36.3434C94.6057 34.6885 94.6056 32.4238 94.541 30.3987C93.5499 31.3786 92.408 32.2496 91.0291 32.5762C88.0343 33.4255 84.7379 32.3803 82.4325 30.3334C80.1056 28.2865 78.7267 25.129 78.856 21.9933C78.9206 18.4439 80.9028 15.0252 83.8976 13.1742V13.1742ZM88.3575 15.9615C87.0432 16.1793 85.8152 16.9196 84.9749 17.9431C82.9496 20.3819 82.9496 24.2798 84.9964 26.6751C86.1599 28.0905 88.0343 28.8744 89.8441 28.6784C91.5462 28.5042 93.119 27.4154 93.9593 25.9129C95.3813 23.3652 95.1443 19.9029 93.2268 17.6818C92.0418 16.3099 90.1458 15.6349 88.3575 15.9615V15.9615Z" fill="#989898"/>
<path d="M112.357 14.2847C114.942 11.8459 118.928 11.0184 122.246 12.3031C125.391 13.5008 127.395 16.5276 128.408 19.6415C123.732 21.6013 119.079 23.5393 114.403 25.4991C115.05 26.7403 116.041 27.8727 117.377 28.3299C119.251 29.005 121.492 28.7655 123.065 27.5025C123.689 27.0234 124.185 26.3919 124.659 25.7822C125.844 26.5879 127.029 27.3718 128.214 28.1775C126.533 30.7253 123.711 32.5108 120.673 32.7939C117.312 33.2077 113.735 31.9011 111.559 29.2445C107.983 25.0636 108.328 18.0519 112.357 14.2847V14.2847ZM114.662 18.3132C113.929 19.3802 113.628 20.6867 113.649 21.9715C116.773 20.665 119.897 19.3584 123.021 18.0301C122.504 16.8107 121.255 16.0703 119.984 15.8743C117.937 15.5042 115.804 16.6147 114.662 18.3132V18.3132Z" fill="#989898"/>
</svg>
