<svg width="153" height="31" viewBox="0 0 153 31" fill="none" xmlns="http://www.w3.org/2000/svg">
<path d="M9.69531 29.9545H3.95752V15.498H0.0488281V10.7913H3.95736V7.44211C3.95736 3.47334 5.68612 0.626953 11.4084 0.626953C12.6186 0.626953 14.5187 0.873501 14.5187 0.873501V5.24396H12.523C10.4896 5.24396 9.69561 5.8691 9.69561 7.5974V10.7913H14.4426L14.0199 15.498H9.69546L9.69531 29.9545ZM22.8608 10.4152C22.7772 10.4152 22.6912 10.4182 22.6061 10.4204C17.2856 10.4204 14.8514 14.4652 14.8514 20.2069C14.8514 27.4399 18.0089 30.3348 22.6476 30.3348C25.3016 30.3348 27.0453 29.2057 28.1051 27.0988V29.9565H33.5625V10.7933H28.1051V13.7403C27.2397 11.8443 25.4473 10.4376 22.8608 10.4152ZM24.2485 14.9434C26.4831 14.9434 27.8243 16.5187 27.8243 19.1982L27.8295 21.935C27.8295 23.7411 26.7217 25.8539 24.2485 25.8539C20.4462 25.8539 20.5478 21.7045 20.5478 20.3225C20.5478 15.6736 22.5736 14.9434 24.2485 14.9434ZM35.7665 20.3759C35.7665 18.0472 35.6563 10.4276 45.4785 10.4276C49.4213 10.4276 51.0677 11.6947 51.0677 11.6947L49.7444 15.8427C49.7444 15.8427 48.1002 14.9277 45.9577 14.9277C43.2136 14.9277 41.4626 16.5355 41.4626 19.3643L41.4656 21.3927C41.4656 24.1109 43.1551 25.9254 45.9633 25.9254C47.9152 25.9254 49.7141 25.0017 49.7141 25.0017L51.034 29.0631C51.034 29.0631 49.5286 30.3381 45.506 30.3381C36.1538 30.3381 35.7667 23.5019 35.7667 20.3759H35.7665ZM83.0667 10.4204C88.3873 10.4204 90.8599 14.4652 90.8599 20.2069C90.8599 27.4399 87.7022 30.3348 83.0635 30.3348C80.4096 30.3348 78.4477 29.2059 77.3879 27.0988V29.9565L71.9991 29.9543V1.20962L77.7206 0.705288V13.4807C78.5463 11.2456 81.2601 10.4204 83.0669 10.4204H83.0667ZM81.4627 14.9434C79.2281 14.9434 77.7206 16.5187 77.7206 19.1982L77.7152 21.935C77.7119 23.7411 78.7592 25.8539 81.4627 25.8539C85.2649 25.8539 85.1634 21.7045 85.1634 20.3225C85.1634 15.6736 83.1377 14.9434 81.4627 14.9434ZM60.9949 10.4362C54.9604 10.4362 51.7745 13.7616 51.7745 19.671V20.7689C51.7745 28.4389 56.2484 30.4135 61.5822 30.4135C66.7667 30.4135 69.1134 28.948 69.1134 28.948L68.0427 25.0451C68.0427 25.0451 65.2823 26.2321 62.2682 26.2321C59.1436 26.2321 57.7998 25.4272 57.4553 22.3923H69.5708V19.2612C69.5708 12.8509 65.9953 10.4361 60.9948 10.4361L60.9949 10.4362ZM61.1403 14.3444C63.2292 14.3444 64.5828 15.639 64.5085 18.6414H57.4659C57.588 15.4814 59.0477 14.3445 61.1403 14.3445V14.3444ZM102.268 10.4099C96.0713 10.4099 92.8088 13.9395 92.8088 20.2646C92.8088 28.943 98.4326 30.34 102.279 30.34C107.909 30.34 111.655 27.2763 111.655 20.3434C111.655 13.1275 107.443 10.4099 102.268 10.4099V10.4099ZM102.19 14.9591C104.915 14.9591 105.995 17.0202 105.995 19.3664V21.3836C105.995 24.2258 104.484 25.8698 102.18 25.8698C100.025 25.8698 98.5105 24.332 98.5105 21.3836V19.3664C98.5105 16.222 100.313 14.9591 102.19 14.9591V14.9591ZM123.053 10.4099C116.856 10.4099 113.594 13.9395 113.594 20.2646C113.594 28.943 119.217 30.34 123.064 30.34C128.694 30.34 132.44 27.2763 132.44 20.3434C132.44 13.1275 128.228 10.4099 123.053 10.4099V10.4099ZM122.975 14.9591C125.7 14.9591 126.78 17.0202 126.78 19.3664V21.3836C126.78 24.2258 125.269 25.8698 122.965 25.8698C120.81 25.8698 119.295 24.332 119.295 21.3836V19.3664C119.295 16.222 121.098 14.9591 122.975 14.9591V14.9591ZM134.602 29.9545V1.20962L140.34 0.705288V19.9719L146.033 10.7913H152.093L146.154 20.2997L152.322 29.9545H146.245L140.34 20.5798V29.9545H134.602Z" fill="#989898"/>
</svg>
