<svg width="142" height="33" viewBox="0 0 142 33" fill="none" xmlns="http://www.w3.org/2000/svg">
<path d="M24.3552 32.1351L15.1672 31.9652C12.1922 31.9061 9.20996 32.0243 6.29348 31.4111C1.85663 30.4951 1.54232 26.0035 1.2134 22.2358C0.760208 16.939 0.935635 11.5461 1.79084 6.29353C2.27327 3.34591 4.17373 1.58768 7.11214 1.3956C17.0311 0.701175 27.0159 0.782438 36.9129 1.10749C37.9581 1.13704 39.0107 1.29956 40.0413 1.48425C45.1287 2.38553 45.253 7.47554 45.5819 11.7603C45.9108 16.0894 45.772 20.4407 45.1434 24.7402C44.639 28.301 43.6741 31.2855 39.6028 31.5737C34.5008 31.9504 29.5157 32.2533 24.3991 32.1573C24.3991 32.1351 24.3698 32.1351 24.3552 32.1351V32.1351ZM18.9535 23.1223C22.7983 20.8913 26.57 18.6972 30.3928 16.4809C26.5407 14.2499 22.7764 12.0558 18.9535 9.83955V23.1223Z" fill="#989898"/>
<path d="M119.28 28.0866C119.104 28.8105 118.951 29.3794 118.797 29.9852H115.201V1.94922H119.397V12.2919C119.616 12.0111 119.726 11.8929 119.821 11.7673C120.537 10.77 121.465 10.1199 122.664 9.86873C124.572 9.49196 126.202 10.3415 126.779 12.1958C127.152 13.3483 127.393 14.582 127.422 15.7862C127.481 18.8816 127.437 21.9696 127.327 25.065C127.283 26.0106 126.998 26.9784 126.64 27.8649C125.463 30.7904 121.619 31.2337 119.711 28.6997C119.594 28.5446 119.484 28.3747 119.28 28.0866V28.0866ZM119.484 20.3739V25.5009C119.484 26.3357 119.923 26.8454 120.749 27.0375C121.56 27.2296 122.218 26.9119 122.547 26.151C122.686 25.8333 122.825 25.5009 122.832 25.1685C122.912 22.0361 122.986 18.9038 123.007 15.764C123.007 15.1804 122.869 14.5746 122.693 14.0058C122.364 12.9789 121.458 12.676 120.566 13.2744C119.894 13.7324 119.484 14.3826 119.484 15.2469V20.3739ZM108.082 10.2677H112.475V29.9999H109.046C108.922 29.2538 108.798 28.4855 108.652 27.5842C108.418 27.9314 108.279 28.153 108.133 28.3747C106.992 30.0369 105.377 30.6057 103.469 30.3028C101.839 30.0369 100.86 28.7662 100.64 26.6829C100.575 26.0624 100.545 25.4344 100.545 24.8138C100.531 20.1966 100.545 15.5646 100.545 10.9473V10.2529H104.99V11.0581C104.99 15.5202 104.975 19.975 105.004 24.4371C105.004 25.0724 105.07 25.7299 105.18 26.3652C105.304 27.0154 105.772 27.2518 106.4 27.2074C107.416 27.1262 108.118 26.3652 108.118 25.3458V11.1394C108.082 10.8513 108.082 10.5853 108.082 10.2677V10.2677ZM77.835 10.2529H82.2499V11.0877C82.2499 15.5276 82.2353 19.9602 82.2645 24.3854C82.2645 25.0207 82.323 25.6782 82.4545 26.2988C82.6227 27.0301 83.0466 27.2665 83.7702 27.1705C84.7716 27.0301 85.3783 26.3283 85.3856 25.3014V11.1689V10.2824H89.7786V29.9999H86.3651C86.2408 29.2686 86.1166 28.515 85.9558 27.562C85.7365 27.8945 85.6122 28.0866 85.488 28.286C84.3477 29.9778 82.7469 30.5983 80.7953 30.2954C79.2311 30.059 78.2735 28.8918 77.9811 26.9784C77.9007 26.38 77.8423 25.789 77.8423 25.1906C77.8276 20.3961 77.8276 15.5793 77.8276 10.7848L77.835 10.2529ZM75.569 20.7876C75.5544 21.4525 75.5105 22.1174 75.474 22.7823C75.3059 24.7769 75.2255 27.6064 73.632 29.0617C72.616 29.9778 71.3295 30.3102 69.9992 30.3545C69.4071 30.3693 68.8078 30.3693 68.2157 30.2881C65.4162 29.8596 64.1151 28.6111 63.6473 25.5009C63.1137 21.9105 63.0698 18.261 63.7058 14.6707C64.3636 10.9547 66.6295 9.63971 70.1527 9.8835C73.442 10.1199 74.9112 12.2993 75.2986 15.402C75.5105 17.1825 75.6129 18.985 75.569 20.7876V20.7876ZM71.0956 20.1079C71.0956 18.8447 71.1249 17.574 71.081 16.3107C71.0518 15.5793 70.9567 14.8406 70.8032 14.1166C70.6278 13.2818 70.1015 12.8829 69.4437 12.8976C68.8005 12.9124 68.3473 13.3114 68.1134 14.087C68.033 14.3752 67.9452 14.6707 67.9452 14.9588C67.9452 16.9387 67.9306 18.9259 67.916 20.9058C67.9014 22.7527 67.6675 24.6883 68.2449 26.4539C68.4204 26.9932 68.8735 27.2887 69.4656 27.2887C70.0431 27.2887 70.4232 27.0006 70.6351 26.4834C70.8032 26.0845 70.9494 25.6486 70.9494 25.2202C71.0006 23.521 71.0956 21.8145 71.0956 20.1079ZM57.2003 16.392C57.5877 14.4786 57.9532 12.6095 58.3552 10.7331C58.8596 8.34688 59.4224 5.96069 59.9195 3.5671C60.0437 2.98348 60.2776 2.84312 60.8258 2.85789C62.0026 2.90222 63.2014 2.87267 64.4586 2.87267C64.0493 4.39452 63.6473 5.84249 63.2526 7.26829C62.0026 11.7452 60.7527 16.2368 59.5174 20.7285C59.4224 21.0757 59.3785 21.4525 59.3785 21.8219C59.3639 24.2746 59.3785 26.7198 59.3785 29.1725V29.9704H55.0879C55.0733 29.7488 55.044 29.5271 55.044 29.3055C55.044 27.9166 54.9344 26.5204 55.0587 25.1463C55.373 21.844 54.335 18.8077 53.4944 15.7345C52.3834 11.6713 51.2577 7.59335 50.1467 3.53017C50.0882 3.33809 50.0663 3.13124 50.0078 2.89483H54.3862C55.3072 7.37911 56.2355 11.8634 57.2003 16.392ZM141.15 21.5411H133.752C133.833 23.0408 133.862 24.4666 134.016 25.8777C134.125 26.8602 134.659 27.2813 135.499 27.2887C136.376 27.3035 136.888 26.8602 137.093 25.8851C137.159 25.5674 137.202 25.2497 137.232 24.9247C137.261 24.6365 137.276 24.3263 137.297 23.9126C138.547 23.979 139.768 24.0529 140.974 24.1046C141.676 26.2101 140.411 28.914 138.284 29.7488C136.61 30.4136 134.893 30.4137 133.182 29.9039C131.918 29.5271 130.975 28.7145 130.551 27.466C130.156 26.2988 129.783 25.0798 129.703 23.8608C129.484 20.8541 129.403 17.8178 129.856 14.8036C129.937 14.3013 130.076 13.8211 130.229 13.3335C130.843 11.3241 132.181 10.0904 134.249 9.8835C135.375 9.77269 136.537 9.81702 137.648 10.0091C139.446 10.3268 140.404 11.6344 140.821 13.3483C141.011 14.1535 141.15 14.9809 141.179 15.801C141.186 17.6848 141.15 19.5539 141.15 21.5411ZM136.947 18.9481C136.947 17.4632 136.961 16.0669 136.932 14.6633C136.932 14.3308 136.808 13.9836 136.683 13.666C136.435 13.0454 135.916 12.8755 135.295 12.8755C134.673 12.8755 134.279 13.1932 134.125 13.762C133.657 15.4685 133.811 17.212 133.825 18.9629C134.944 18.9481 135.96 18.9481 136.947 18.9481V18.9481Z" fill="#989898"/>
<path d="M93.1714 6.49247H88.8223V2.93164H101.804V6.47031H97.4839V29.9703H93.1787L93.1714 6.49247Z" fill="#989898"/>
</svg>
