<svg width="125" height="42" viewBox="0 0 125 42" fill="none" xmlns="http://www.w3.org/2000/svg">
<path d="M15.3214 0H16.4277C20.2683 0.0843845 24.0464 1.6455 26.7599 4.40909C25.7579 5.4428 24.7352 6.43432 23.7541 7.46803C22.2304 6.07568 20.3936 4.99978 18.3898 4.62005C15.4258 3.98717 12.2322 4.55676 9.74832 6.26555C7.03482 8.05872 5.198 11.0966 4.80141 14.3454C4.36307 17.552 5.26061 20.9274 7.32705 23.4167C9.30999 25.8427 12.3366 27.3617 15.4675 27.4672C18.3898 27.6359 21.4372 26.7288 23.5663 24.6614C25.2361 23.2057 26.0084 20.9906 26.2589 18.8388C22.794 18.8388 19.329 18.8599 15.8641 18.8388V14.493H30.4544C31.2058 19.1553 30.1204 24.4082 26.6137 27.7414C24.276 30.1042 21.0406 31.4965 17.7427 31.7708C14.5491 32.0872 11.2512 31.4754 8.41244 29.9143C5.01014 28.0789 2.29664 24.9778 0.960768 21.3282C-0.291615 17.9739 -0.312488 14.1766 0.856402 10.8012C1.92093 7.72118 3.96649 4.99978 6.59649 3.10113C9.12213 1.22358 12.1905 0.189865 15.3214 0Z" fill="#989898"/>
<path d="M99.0234 1.09766H103.49V31.2229C102.008 31.2229 100.505 31.244 99.0234 31.2018C99.0443 21.1811 99.0234 11.1394 99.0234 1.09766V1.09766Z" fill="#989898"/>
<path d="M40.3888 11.5387C43.1441 11.0113 46.1289 11.602 48.4041 13.2686C50.4705 14.7453 51.9108 17.0658 52.3491 19.5974C52.9127 22.5297 52.203 25.7363 50.3244 28.0568C48.2997 30.6516 44.9809 32.044 41.7456 31.833C38.7816 31.6642 35.9011 30.1664 34.1478 27.7193C32.1649 25.019 31.6848 21.3061 32.7702 18.1417C33.8556 14.7453 36.9239 12.1505 40.3888 11.5387V11.5387ZM41.015 15.5469C39.8879 15.8423 38.8442 16.4962 38.0928 17.4245C36.0681 19.8716 36.1934 23.8587 38.4268 26.1371C39.7 27.4451 41.6203 28.0568 43.3946 27.6982C45.0435 27.4029 46.4838 26.2848 47.277 24.8081C48.6546 22.2976 48.258 18.8379 46.1498 16.876C44.7931 15.6102 42.8101 15.0828 41.015 15.5469Z" fill="#989898"/>
<path d="M62.5131 11.5393C65.665 10.9275 69.109 11.8135 71.4677 14.0497C75.3083 17.5306 75.7258 24.0493 72.4487 28.0576C70.4658 30.5891 67.2513 31.9815 64.0786 31.8338C61.052 31.7494 58.0672 30.2305 56.2721 27.72C54.2474 24.9564 53.8091 21.1591 54.9571 17.9314C56.1051 14.6404 59.1108 12.13 62.5131 11.5393V11.5393ZM63.1393 15.5475C62.0122 15.8429 60.9685 16.4969 60.2171 17.404C58.2133 19.809 58.2968 23.7329 60.4467 26.0323C61.72 27.4036 63.7029 28.0787 65.5397 27.6989C67.1678 27.3825 68.6289 26.2855 69.4221 24.8088C70.7789 22.2772 70.3823 18.8175 68.2532 16.8555C66.8965 15.5897 64.9135 15.0834 63.1393 15.5475Z" fill="#989898"/>
<path d="M81.2811 12.7625C83.6815 11.2436 86.8751 10.8217 89.4633 12.1296C90.2774 12.4883 90.9453 13.1001 91.5924 13.7119C91.6132 13.1423 91.5924 12.5516 91.6132 11.9609C93.0117 11.982 94.4102 11.9609 95.8296 11.982V30.5887C95.8087 33.3945 95.099 36.369 93.0952 38.4154C90.9036 40.6726 87.543 41.3688 84.5164 40.9047C81.2811 40.4195 78.4632 38.0356 77.2108 35.0189C78.4632 34.4071 79.7782 33.9219 81.0723 33.3523C81.8029 35.0822 83.2849 36.5589 85.1426 36.8964C87.0003 37.234 89.1502 36.7699 90.3609 35.2088C91.655 33.6055 91.655 31.4115 91.5924 29.4495C90.6322 30.3989 89.5259 31.2427 88.1901 31.5591C85.2887 32.3819 82.0951 31.3693 79.8617 29.3862C77.6074 27.4032 76.2715 24.3443 76.3968 21.3064C76.4594 17.8678 78.3797 14.5557 81.2811 12.7625V12.7625ZM85.6018 15.4628C84.3285 15.6738 83.1388 16.3911 82.3247 17.3826C80.3627 19.7453 80.3627 23.5215 82.3456 25.8421C83.4727 27.2133 85.2887 27.9728 87.042 27.7829C88.691 27.6142 90.2147 26.5594 91.0288 25.1037C92.4064 22.6355 92.1768 19.2812 90.3191 17.1294C89.1711 15.8004 87.3343 15.1464 85.6018 15.4628V15.4628Z" fill="#989898"/>
<path d="M108.85 13.8389C111.355 11.4761 115.217 10.6745 118.431 11.9192C121.479 13.0794 123.42 16.0118 124.401 19.0285C119.871 20.9272 115.363 22.8047 110.833 24.7034C111.459 25.9059 112.42 27.0029 113.714 27.4459C115.53 28.0999 117.701 27.8678 119.224 26.6442C119.83 26.1801 120.31 25.5683 120.769 24.9776C121.917 25.7582 123.065 26.5177 124.213 27.2982C122.585 29.7665 119.85 31.4963 116.907 31.7706C113.651 32.1714 110.186 30.9057 108.078 28.3319C104.613 24.2815 104.947 17.4885 108.85 13.8389V13.8389ZM111.084 17.7417C110.374 18.7754 110.082 20.0412 110.103 21.2858C113.129 20.0201 116.156 18.7543 119.182 17.4674C118.682 16.2861 117.471 15.5688 116.239 15.3789C114.256 15.0203 112.19 16.0962 111.084 17.7417V17.7417Z" fill="#989898"/>
</svg>
